<svg xmlns="http://www.w3.org/2000/svg" viewBox="0 0 470 120" width="470" height="120">
  <g transform="translate(10,12) scale(0.96)">
    <rect x="14" y="14" width="60" height="17" fill="#18181B"></rect>
    <rect x="14" y="69" width="60" height="17" fill="#18181B"></rect>
    <polygon points="56,31 74,31 32,69 14,69" fill="#18181B"></polygon>
    <rect x="79" y="69" width="13" height="17" fill="#22D3EE"></rect>
  </g>
  <path d="M141.222 80L134.960 80L134.960 47.016L140.726 47.016L140.850 52.968Q142.152 49.558 144.942 47.915Q147.732 46.272 151.204 46.272L151.204 46.272Q154.862 46.272 157.311 47.915Q159.760 49.558 161 52.379Q162.240 55.200 162.240 58.734L162.240 58.734L162.240 80L155.978 80L155.978 60.346Q155.978 51.728 149.406 51.728L149.406 51.728Q145.996 51.728 143.609 53.960Q141.222 56.192 141.222 60.470L141.222 60.470L141.222 80Z M184.300 80.744L184.300 80.744Q179.712 80.744 176.271 78.636Q172.830 76.528 170.939 72.653Q169.048 68.778 169.048 63.508L169.048 63.508Q169.048 58.238 170.939 54.363Q172.830 50.488 176.271 48.380Q179.712 46.272 184.300 46.272L184.300 46.272Q188.888 46.272 192.329 48.380Q195.770 50.488 197.661 54.363Q199.552 58.238 199.552 63.508L199.552 63.508Q199.552 68.778 197.661 72.653Q195.770 76.528 192.329 78.636Q188.888 80.744 184.300 80.744ZM184.300 74.978L184.300 74.978Q188.454 74.978 190.717 71.940Q192.980 68.902 192.980 63.508L192.980 63.508Q192.980 58.114 190.717 55.076Q188.454 52.038 184.300 52.038L184.300 52.038Q180.146 52.038 177.883 55.076Q175.620 58.114 175.620 63.508L175.620 63.508Q175.620 68.902 177.883 71.940Q180.146 74.978 184.300 74.978Z M233.764 80L206.236 80L206.236 74.110L226.200 52.286L206.856 52.286L206.856 47.016L233.268 47.016L233.268 52.906L213.242 74.730L233.764 74.730L233.764 80Z M272.068 80L241.812 80L241.812 74.730L254.708 74.730L254.708 52.286L242.432 52.286L242.432 47.016L261.032 47.016L261.032 74.730L272.068 74.730L272.068 80ZM260.784 42.242L254.336 42.242L254.336 35.732L260.784 35.732L260.784 42.242Z M306.528 80L276.272 80L276.272 74.730L289.168 74.730L289.168 45.342Q289.168 43.420 288.114 42.335Q287.060 41.250 285.076 41.250L285.076 41.250L277.512 41.250L277.512 35.980L285.758 35.980Q295.430 35.980 295.430 45.652L295.430 45.652L295.430 74.730L306.528 74.730L306.528 80Z" fill="#18181B"></path>
  <path d="M331.316 80L322.884 80L322.884 71.816L331.316 71.816L331.316 80Z M360.196 80.744L360.196 80.744Q353.872 80.744 350.152 76.125Q346.432 71.506 346.432 63.508L346.432 63.508Q346.432 55.510 350.152 50.891Q353.872 46.272 360.196 46.272L360.196 46.272Q363.668 46.272 366.241 47.884Q368.814 49.496 370.054 51.666L370.054 51.666L370.054 35.980L376.316 35.980L376.316 80L370.488 80L370.302 74.978Q368.876 77.582 366.303 79.163Q363.730 80.744 360.196 80.744ZM361.250 74.978L361.250 74.978Q365.342 74.978 367.698 71.909Q370.054 68.840 370.054 63.508L370.054 63.508Q370.054 58.114 367.667 55.076Q365.280 52.038 361.126 52.038L361.126 52.038Q357.344 52.038 355.174 55.076Q353.004 58.114 353.004 63.508L353.004 63.508Q353.004 68.840 355.174 71.909Q357.344 74.978 361.250 74.978Z M398.810 80.744L398.810 80.744Q394.160 80.744 390.719 78.605Q387.278 76.466 385.387 72.591Q383.496 68.716 383.496 63.508L383.496 63.508Q383.496 58.300 385.356 54.425Q387.216 50.550 390.626 48.411Q394.036 46.272 398.624 46.272L398.624 46.272Q402.964 46.272 406.343 48.318Q409.722 50.364 411.613 54.270Q413.504 58.176 413.504 63.632L413.504 63.632L413.504 65.368L390.006 65.368Q390.316 70.142 392.641 72.560Q394.966 74.978 398.872 74.978L398.872 74.978Q401.786 74.978 403.708 73.614Q405.630 72.250 406.374 69.956L406.374 69.956L412.884 70.390Q411.458 75.102 407.800 77.923Q404.142 80.744 398.810 80.744ZM390.068 60.346L390.068 60.346L406.684 60.346Q406.374 56.130 404.142 54.084Q401.910 52.038 398.562 52.038L398.562 52.038Q395.090 52.038 392.858 54.146Q390.626 56.254 390.068 60.346Z M438.106 80L430.294 80L418.390 47.016L425.148 47.016L434.200 73.366L443.252 47.016L450.010 47.016L438.106 80Z" fill="#7C3AED"></path>
</svg>